<svg width="32" height="32" viewBox="0 0 32 32" fill="none" xmlns="http://www.w3.org/2000/svg">
<g clip-path="url(#clip0_75_9)">
<path d="M16 32C24.8366 32 32 24.8366 32 16C32 7.16344 24.8366 0 16 0C7.16344 0 0 7.16344 0 16C0 24.8366 7.16344 32 16 32Z" fill="white"/>
<path d="M17.3058 14.7749L23.1267 8H21.7474L16.693 13.8826L12.6561 8H8L14.1046 16.8955L8 24H9.37947L14.717 17.7878L18.9803 24H23.6364L17.3054 14.7749H17.3058ZM15.4164 16.9738L14.7979 16.0881L9.87651 9.03974H11.9953L15.9669 14.728L16.5854 15.6137L21.748 23.0075H19.6292L15.4164 16.9742V16.9738Z" fill="black"/>
</g>
<defs>
<clipPath id="clip0_75_9">
<rect width="32" height="32" fill="white"/>
</clipPath>
</defs>
</svg>
